<?xml version="1.0" encoding="UTF-8"?>
<!DOCTYPE svg PUBLIC "-//W3C//DTD SVG 1.1//EN" "http://www.w3.org/Graphics/SVG/1.1/DTD/svg11.dtd">
<svg version="1.1" xmlns="http://www.w3.org/2000/svg" xmlns:xlink="http://www.w3.org/1999/xlink" x="0" y="0" width="32" height="32" viewBox="0, 0, 32, 32">
  <g id="Layer_1">
    <path d="M16.852,2.284 C18.528,3.359 18.008,2.7 18.701,3.994 L18.893,4.584 C19.134,5.321 19.73,5.921 20.516,6.215 C21.303,6.509 22.194,6.466 22.941,6.098 L23.538,5.805 C26.004,4.591 28.701,7.027 27.359,9.255 L27.032,9.793 C26.625,10.468 26.578,11.273 26.903,11.983 C27.229,12.693 27.892,13.232 28.709,13.449 L29.362,13.622 C32.054,14.34 32.054,17.785 29.362,18.502 L28.708,18.676 C27.892,18.893 27.229,19.432 26.903,20.142 C26.578,20.852 26.625,21.657 27.032,22.331 L27.357,22.871 C28.701,25.098 26.004,27.534 23.537,26.322 L22.941,26.027 C22.194,25.659 21.303,25.616 20.516,25.91 C19.73,26.204 19.134,26.804 18.894,27.541 L18.701,28.131 C17.907,30.563 14.093,30.563 13.299,28.131 L13.106,27.541 C12.866,26.804 12.27,26.204 11.484,25.91 C10.697,25.616 9.806,25.659 9.059,26.027 L8.461,26.32 C5.996,27.534 3.299,25.098 4.641,22.87 L4.968,22.331 C5.375,21.657 5.422,20.852 5.097,20.142 C4.771,19.432 4.108,18.893 3.291,18.676 L2.637,18.502 C-0.054,17.785 -0.054,14.34 2.638,13.623 L3.291,13.449 C5.012,12.991 5.825,11.218 4.968,9.794 L4.643,9.253 C3.299,7.027 5.996,4.591 8.463,5.803 L9.059,6.098 C9.806,6.466 10.697,6.509 11.484,6.215 C12.27,5.921 12.866,5.321 13.106,4.584 L13.298,3.993 C13.972,2.495 14.702,2.345 16.216,2.28 L16.852,2.284 z M16,6.625 L16,6.625 L15.035,6.674 C10.11,7.389 6.812,11.124 6.562,16.062 C6.562,21.275 10.788,25.5 16,25.5 C21.212,25.5 25.438,21.275 25.438,16.062 C25.351,10.725 21.199,6.887 16,6.625 L16,6.625 z M16,8.875 L17.448,9.021 C20.983,10.054 22.825,12.467 23.187,16.062 C23.188,20.032 19.97,23.25 16,23.25 C12.03,23.25 8.812,20.032 8.812,16.062 C8.812,12.093 12.03,8.875 16,8.875 L16,8.875 z M17,16.639 L14.996,16.639 C14.838,16.64 14.711,16.767 14.711,16.924 L14.711,18.938 C14.711,19.096 14.838,19.223 14.996,19.223 L17,19.223 C17.157,19.223 17.285,19.096 17.285,18.938 L17.285,16.924 C17.285,16.767 17.157,16.64 17,16.64 z M13.135,16.639 L11.131,16.639 C10.974,16.64 10.846,16.767 10.846,16.924 L10.846,18.938 C10.846,19.096 10.974,19.223 11.131,19.223 L13.135,19.223 C13.287,19.216 13.407,19.091 13.408,18.938 L13.408,16.927 C13.407,16.77 13.28,16.643 13.123,16.642 L13.135,16.639 z M12.855,17.216 L12.836,18.648 L11.423,18.648 L11.423,17.216 L12.855,17.216 z M20.877,16.639 L18.861,16.639 C18.703,16.64 18.576,16.767 18.576,16.924 L18.576,18.938 C18.576,19.096 18.703,19.223 18.861,19.223 L20.865,19.223 C20.943,19.226 21.018,19.198 21.074,19.144 C21.13,19.09 21.162,19.016 21.162,18.938 L21.162,16.924 C21.162,16.767 21.034,16.64 20.877,16.64 z M17,12.777 L14.996,12.777 C14.838,12.777 14.711,12.904 14.711,13.062 L14.711,15.076 C14.711,15.233 14.838,15.36 14.996,15.36 L17,15.36 C17.157,15.36 17.285,15.233 17.285,15.076 L17.285,13.062 C17.285,12.904 17.157,12.777 17,12.777 z M16.705,13.352 L16.705,14.783 L15.292,14.783 L15.292,13.352 L16.705,13.352 z M13.135,12.777 L11.131,12.777 C10.974,12.777 10.846,12.904 10.846,13.062 L10.846,15.076 C10.846,15.233 10.974,15.36 11.131,15.36 L13.135,15.36 C13.293,15.36 13.42,15.233 13.42,15.076 L13.42,13.062 C13.419,12.905 13.292,12.778 13.135,12.777 z M20.877,12.777 L18.863,12.777 C18.786,12.775 18.712,12.804 18.657,12.858 C18.602,12.911 18.571,12.985 18.571,13.062 L18.571,15.076 C18.571,15.233 18.699,15.36 18.856,15.36 L20.86,15.36 C20.939,15.365 21.016,15.337 21.073,15.283 C21.13,15.229 21.162,15.154 21.162,15.076 L21.162,13.062 C21.161,12.905 21.034,12.778 20.877,12.777 z M20.589,13.352 L20.589,14.783 L19.157,14.783 L19.157,13.352 L20.589,13.352 z" fill="#4285F4"/>
  </g>
</svg>
